# xmcd
#
# Track frame offsets:
# 150
# 17492
# 31780
# 46400
# 64922
# 76805
# 97827
# 113315
# 128070
# 148672
# 169577
# 186257
# 200657
# 214912
# 233134
# 245160
# 266187
# 281525
# 296332
# 316950
#
# Disc length: 4504 seconds
#
#
# Revision: 0
# Processed by: cddbd v1.5.2PL0 Copyright (c) Steve Scherf et al.
# Submitted via: FreeRIP 2.943 
#
DISCID=1a119614
DTITLE=Daniel e Samuel - As 10 Melhores
DYEAR=1900
DGENRE=Gospel
TTITLE0=Saudade
TTITLE1=Deus não Falha
TTITLE2=Deus de Elias
TTITLE3=Ele vem te Socorrer
TTITLE4=O Especialista
TTITLE5=Daudade de Tereza
TTITLE6=A Ovelha
TTITLE7=Tempo de Infância
TTITLE8=Compromisso
TTITLE9=Belo Paraíso
TTITLE10=Play Back
TTITLE11=Play Back
TTITLE12=Play Back
TTITLE13=Play Back
TTITLE14=Play Back
TTITLE15=Play Back
TTITLE16=Play Back
TTITLE17=Play Back
TTITLE18=Play Back
TTITLE19=Play Back
EXTD=
EXTT0=
EXTT1=
EXTT2=
EXTT3=
EXTT4=
EXTT5=
EXTT6=
EXTT7=
EXTT8=
EXTT9=
EXTT10=
EXTT11=
EXTT12=
EXTT13=
EXTT14=
EXTT15=
EXTT16=
EXTT17=
EXTT18=
EXTT19=
PLAYORDER=
